<svg width="1347" height="907" xmlns="http://www.w3.org/2000/svg" class="gridItem__media">
 <g>
  <title>background</title>
  <rect x="-1" y="-1" width="1349" height="909" id="canvas_background" fill="none"/>
 </g>
 <g>
  <title>Layer 1</title>
  <path d="m1215.05969,905.75191l129.83,-507.18c3.52,-13.77 1.66,-28.37 -5.18,-40.82l-137.03,-249.35c-8.81,-16.04 -24.9,-26.76 -43.1,-28.71l-738.84,-79.37c-16.44,-1.77 -32.82,3.82 -44.75,15.27l-331.97,318.46c-12.94,12.41 -19.15,30.26 -16.71,48.02l71.28,523.69l1116.47,0l0,-0.01z" fill="#F4F4F4" id="svg_1"/>
  <path d="m1212.42329,905.75191l-1121.35,0l-14.03,-138.94l1170.94,0l-35.56,138.94z" fill="#AFB3B8" id="svg_2"/>
  <g opacity="0.4" id="svg_3">
   <path opacity="0.4" d="m1239.00329,804.72191l-1158.13,0l-1.62,-16l1163.96,0l-4.21,16z" fill="white" id="svg_4"/>
  </g>
  <g opacity="0.4" id="svg_5">
   <path opacity="0.4" d="m362.48329,854.45191l-189.56,0l0,16l189.56,0l0,-16z" fill="white" id="svg_6"/>
  </g>
  <g opacity="0.4" id="svg_7">
   <path opacity="0.4" d="m833.94329,854.45191l-189.56,0l0,16l189.56,0l0,-16z" fill="white" id="svg_8"/>
  </g>
  <g opacity="0.4" id="svg_9">
   <path opacity="0.4" d="m1221.71329,870.45191l-105.88,0l0,-16l110.08,0l-4.2,16z" fill="white" id="svg_10"/>
  </g>
  <path d="m738.52329,263.23291c0,0 -11.3,-2.49 -18.97,-10.16c-7.67,-7.67 -21.3,-30.11 -55.82,-20.52c-34.52,9.59 -32.6,15.34 -49.86,13.42c-17.26,-1.92 -34.52,-34.04 -61.36,-26.85c-26.85,7.19 -58.92,44.1 -58.92,44.1l244.93,0.01z" fill="white" id="svg_11"/>
  <path d="m310.63329,75.76291l178.01,0c0,0 -11.3,-2.49 -18.97,-10.16c-7.67,-7.67 -21.3,-30.11 -55.82,-20.52c-34.52,9.59 -32.6,15.34 -49.86,13.42c-7.1,-0.79 -14.2,-6.69 -21.97,-12.86l-31.39,30.12z" fill="white" id="svg_12"/>
  <path d="m1276.19329,290.40291c0,0 -7.23,-1.59 -12.15,-6.51c-4.91,-4.91 -13.64,-19.28 -35.74,-13.14c-22.1,6.14 -20.87,9.82 -31.93,8.6c-11.05,-1.23 -22.1,-21.8 -39.29,-17.19c-17.19,4.6 -37.73,28.24 -37.73,28.24l156.84,0z" fill="white" id="svg_13"/>
  <path d="m588.77329,368.65191c0,0 -8.35,-1.84 -14.01,-7.51c-5.67,-5.67 -15.74,-22.24 -41.24,-15.16c-25.5,7.08 -24.08,11.33 -36.83,9.92c-12.75,-1.42 -25.5,-25.15 -45.33,-19.83c-19.83,5.31 -43.53,32.58 -43.53,32.58l180.94,0z" fill="white" id="svg_14"/>
  <path d="m1319.19329,488.65191l-300.16,0c29.3,-29.3 89.15,-13.62 118.86,-11.56c29.72,2.06 51.59,-29.72 81.3,-37.14c29.72,-7.43 52,13.62 73.88,23.94c12.56,5.93 21.86,6.13 31.17,5l-5.05,19.76z" fill="white" id="svg_15"/>
  <path d="m564.48429,126.72291c0,0 -12.88,-24.32 -32.33,-18.02c-18.76,6.08 -20.73,23.46 -20.73,23.46c0,0 -16.43,-20.38 -35.56,-11.86c-17.24,7.68 -13.92,31.26 -13.92,31.26c0,0 3.58,-20.96 20.23,-24.52c16.65,-3.56 31.13,14.53 31.13,14.53c0,0 3.56,-19.92 21.05,-24.96c17.48,-5.05 30.13,10.11 30.13,10.11z" fill="#21252B" id="svg_16"/>
  <path d="m441.31329,118.38291c0,0 -8.64,-19.04 -24.57,-13.99c-13.23,4.19 -14.68,16.29 -14.68,16.29c0,0 -11.81,-13.93 -25,-7.66c-11.89,5.65 -9.17,22.04 -9.17,22.04c0,0 2.6,-14.96 14.15,-17.73c11.55,-2.77 21.49,9.88 21.49,9.88c0,0 3.91,-13.68 16.02,-17.49c12.1,-3.84 21.76,8.66 21.76,8.66z" fill="#21252B" id="svg_17"/>
  <g opacity="0.2" id="svg_22">
   <path opacity="0.2" d="m753.26329,255.33191l-90.62,0c-5.82,0 -10.54,-4.72 -10.54,-10.54c0,-5.82 4.72,-10.54 10.54,-10.54l90.62,0c5.82,0 10.54,4.72 10.54,10.54c0,5.82 -4.72,10.54 -10.54,10.54z" class="change-color-in-svg" fill=" rgb(51, 105, 180)" id="svg_23"/>
  </g>
  <g opacity="0.2" id="svg_30">
   <path opacity="0.2" d="m963.13329,255.33191l-90.62,0c-5.82,0 -10.54,-4.72 -10.54,-10.54c0,-5.82 4.72,-10.54 10.54,-10.54l90.62,0c5.82,0 10.54,4.72 10.54,10.54c0.01,5.82 -4.71,10.54 -10.54,10.54z" class="change-color-in-svg" fill=" rgb(51, 105, 180)" id="svg_31"/>
  </g>
  <g opacity="0.2" id="svg_38">
   <path opacity="0.2" d="m1173.01329,255.33191l-90.62,0c-5.82,0 -10.54,-4.72 -10.54,-10.54c0,-5.82 4.72,-10.54 10.54,-10.54l90.62,0c5.82,0 10.54,4.72 10.54,10.54c0,5.82 -4.72,10.54 -10.54,10.54z" class="change-color-in-svg" fill=" rgb(51, 105, 180)" id="svg_39"/>
  </g>
  <path opacity="0.7" d="m1080.49162,468.02381l-155.09,0c-3.91,0 -7.08,-3.17 -7.08,-7.08l0,-128.46c0,-3.91 3.17,-7.07 7.08,-7.07l155.09,0c3.91,0 7.07,3.17 7.07,7.07l0,128.46c0.01,3.91 -3.16,7.08 -7.07,7.08z" fill="white" id="svg_45"/>
  <g opacity="0.2" id="svg_46">
   <path opacity="0.2" d="m854.45229,429.14191l-90.62,0c-5.82,0 -10.54,-4.72 -10.54,-10.54c0,-5.82 4.72,-10.54 10.54,-10.54l90.62,0c5.82,0 10.54,4.72 10.54,10.54c0,5.82 -4.72,10.54 -10.54,10.54z" class="change-color-in-svg" fill=" rgb(51, 105, 180)" id="svg_47"/>
  </g>
  <path d="m746.17229,327.59191c1.961,0 3.55,-1.59 3.55,-3.55c0,-1.961 -1.589,-3.55 -3.55,-3.55c-1.96,0 -3.55,1.589 -3.55,3.55c0,1.96 1.59,3.55 3.55,3.55z" fill="white" id="svg_49"/>
  <g opacity="0.2" id="svg_54">
   <path opacity="0.2" d="m1064.32329,429.14191l-90.62,0c-5.82,0 -10.54,-4.72 -10.54,-10.54c0,-5.82 4.72,-10.54 10.54,-10.54l90.62,0c5.82,0 10.54,4.72 10.54,10.54c0.01,5.82 -4.71,10.54 -10.54,10.54z" class="change-color-in-svg" fill=" rgb(51, 105, 180)" id="svg_55"/>
  </g>
  <g opacity="0.2" id="svg_61">
   <path opacity="0.2" d="m1274.20329,429.14191l-90.62,0c-5.82,0 -10.54,-4.72 -10.54,-10.54c0,-5.82 4.72,-10.54 10.54,-10.54l90.62,0c5.82,0 10.54,4.72 10.54,10.54c0,5.82 -4.72,10.54 -10.54,10.54z" class="change-color-in-svg" fill=" rgb(51, 105, 180)" id="svg_62"/>
  </g>
  <path d="m349.23329,554.45191l-32.89,-20.69l8.03,-12.76l33.63,21.15l-8.77,12.3z" fill="black" id="svg_163"/>
  <path d="m343.69329,560.67191l-2.88,9.59c-3.06,10.17 -1.16,21.18 5.13,29.75c6.51,8.87 16.94,14.04 27.95,13.8c29.27,-0.64 92.95,-2.24 155.24,14.84c4.15,1.14 8.44,-1.28 9.6,-5.42c0.83,-2.96 -0.16,-6.13 -2.52,-8.1l-69.86,-54.31c-18.77,-15.66 -42.44,-24.23 -66.88,-24.23l-23.39,0c-14.93,-0.01 -28.1,9.78 -32.39,24.08z" class="change-color-in-svg" fill=" rgb(51, 105, 180)" id="svg_164"/>
  <path opacity="0.15" d="m343.69329,560.67191l-2.88,9.59c-3.06,10.17 -1.16,21.18 5.13,29.75c6.51,8.87 16.94,14.04 27.95,13.8c29.27,-0.64 92.95,-2.24 155.24,14.84c4.15,1.14 8.44,-1.28 9.6,-5.42c0.83,-2.96 -0.16,-6.13 -2.52,-8.1l-69.86,-54.31c-18.77,-15.66 -42.44,-24.23 -66.88,-24.23l-23.39,0c-14.93,-0.01 -28.1,9.78 -32.39,24.08z" fill="black" id="svg_165"/>
  <path opacity="0.2" d="m463.12329,662.79191l-84.14,0c-3.99,0 -7.23,-3.24 -7.23,-7.23c0,-3.99 3.24,-7.23 7.23,-7.23l84.14,0c3.99,0 7.23,3.24 7.23,7.23c0,3.99 -3.24,7.23 -7.23,7.23z" fill="black" id="svg_166"/>
  <path d="m463.12329,677.25191l-84.14,0c-3.99,0 -7.23,-3.24 -7.23,-7.23c0,-3.99 3.24,-7.23 7.23,-7.23l84.14,0c3.99,0 7.23,3.24 7.23,7.23c0,3.99 -3.24,7.23 -7.23,7.23z" fill="black" id="svg_167"/>
  <path opacity="0.2" d="m463.12329,691.71191l-84.14,0c-3.99,0 -7.23,-3.24 -7.23,-7.23c0,-3.99 3.24,-7.23 7.23,-7.23l84.14,0c3.99,0 7.23,3.24 7.23,7.23c0,3.99 -3.24,7.23 -7.23,7.23z" fill="black" id="svg_168"/>
  <path d="m463.12329,706.17191l-84.14,0c-3.99,0 -7.23,-3.24 -7.23,-7.23c0,-3.99 3.24,-7.23 7.23,-7.23l84.14,0c3.99,0 7.23,3.24 7.23,7.23c0,3.99 -3.24,7.23 -7.23,7.23z" fill="black" id="svg_169"/>
  <path opacity="0.2" d="m457.19329,720.63191l-72.27,0c-3.99,0 -7.23,-3.24 -7.23,-7.23c0,-3.99 3.24,-7.23 7.23,-7.23l72.27,0c3.99,0 7.23,3.24 7.23,7.23c0,3.99 -3.24,7.23 -7.23,7.23z" fill="black" id="svg_170"/>
  <path d="m448.54329,735.09191l-54.99,0c-3.99,0 -7.23,-3.24 -7.23,-7.23c0,-3.99 3.24,-7.23 7.23,-7.23l54.99,0c3.99,0 7.23,3.24 7.23,7.23c0,3.99 -3.23,7.23 -7.23,7.23z" fill="black" id="svg_171"/>
  <path opacity="0.2" d="m441.18329,749.55191l-40.26,0c-3.99,0 -7.23,-3.24 -7.23,-7.23c0,-3.99 3.24,-7.23 7.23,-7.23l40.26,0c3.99,0 7.23,3.24 7.23,7.23c0,3.99 -3.24,7.23 -7.23,7.23z" fill="black" id="svg_172"/>
  <path d="m511.52329,630.19191l97.3,41.57c6.71,2.6 10.71,9.52 9.6,16.63l-0.07,0.44c-1.04,6.64 -6.29,11.83 -12.94,12.79l-19.05,2.74c-36.39,5.23 -72.62,-10.45 -93.73,-40.55l-6.68,-9.52c-3.2,-4.56 -3.66,-10.5 -1.22,-15.51c3.5,-7.15 19.38,-11.46 26.79,-8.59z" class="change-color-in-svg" fill=" rgb(51, 105, 180)" id="svg_173"/>
  <path opacity="0.15" d="m511.52329,630.19091l97.3,41.57c6.71,2.6 10.71,9.52 9.6,16.63l-0.07,0.44c-1.04,6.64 -6.29,11.83 -12.94,12.79l-19.05,2.74c-36.39,5.23 -72.62,-10.45 -93.73,-40.55l-6.68,-9.52c-3.2,-4.56 -3.66,-10.5 -1.22,-15.51c2.6,-6.09 17.92,-11.64 26.79,-8.59z" fill="black" id="svg_174"/>
  <path d="m515.51329,631.22191l104.82,40.53c6.71,2.6 10.71,9.52 9.6,16.63l-0.07,0.44c-1.04,6.64 -6.29,11.83 -12.94,12.79l-19.05,2.74c-36.39,5.23 -72.62,-10.45 -93.73,-40.55l-6.68,-9.52c-3.2,-4.56 -3.66,-10.5 -1.22,-15.51c3.5,-7.14 11.86,-10.41 19.27,-7.55z" class="change-color-in-svg" fill=" rgb(51, 105, 180)" id="svg_175"/>
  <path d="m314.06329,739.54191c-0.06,-0.74 -0.13,-1.49 -0.2,-2.24c-6.44,-64.91 -64.17,-113.22 -129.18,-107.98c-13.84,1.12 -26.92,4.52 -38.91,9.79c-3.07,1.35 -3.96,5.27 -1.74,7.79l64.22,72.88l99.7,24.95c3.28,0.82 6.39,-1.83 6.11,-5.19z" class="change-color-in-svg" fill=" rgb(51, 105, 180)" id="svg_176"/>
  <path opacity="0.15" d="m314.06329,739.54191c-0.06,-0.74 -0.13,-1.49 -0.2,-2.24c-6.44,-64.91 -64.17,-113.22 -129.18,-107.98c-13.84,1.12 -26.92,4.52 -38.91,9.79c-3.07,1.35 -3.96,5.27 -1.74,7.79l64.22,72.88l99.7,24.95c3.28,0.82 6.39,-1.83 6.11,-5.19z" fill="black" id="svg_177"/>
  <path d="m69.03329,757.48191c0,-59.93 48.58,-108.5 108.5,-108.5c59.92,0 108.5,48.58 108.5,108.5c0,57.65 -23.52,105.01 -80.29,108.5c-2.24,0.14 -25.94,0 -28.21,0c-59.92,0 -108.5,-48.57 -108.5,-108.5z" fill="#3F4249" id="svg_178"/>
  <path d="m738.05329,865.98191c59.923,0 108.5,-48.577 108.5,-108.5c0,-59.923 -48.577,-108.5 -108.5,-108.5c-59.923,0 -108.5,48.577 -108.5,108.5c0,59.923 48.577,108.5 108.5,108.5z" fill="#3F4249" id="svg_179"/>
  <path d="m639.66329,675.55191c-27.14,-19.01 -66.34,-34.61 -97.93,-43.94l-0.77,-17.72l57.37,12.51c26.64,5.81 54.49,1.71 78.32,-11.55l12.57,-6.99c2.64,-1.47 5.79,-1.69 8.61,-0.62c8.02,3.06 8.92,14.04 1.51,18.37l-8.44,4.93c-17.17,10.02 -32.52,22.9 -45.37,38.08l-5.87,6.93z" fill="#3F4249" id="svg_180"/>
  <path d="m876.77329,660.36191l-25.41,0l0,-24.02l25.41,0c6.44,0 11.66,5.22 11.66,11.66l0,0.7c0,6.44 -5.22,11.66 -11.66,11.66z" class="change-color-in-svg" fill=" rgb(51, 105, 180)" id="svg_181"/>
  <path d="m877.39329,636.34191l-38.63,0l0,50.81l38.63,0l0,-50.81z" fill="black" id="svg_182"/>
  <path d="m880.07329,692.28191c2.12,-1.46 2.77,-4.3 1.48,-6.53c-25.54,-44.34 -69.11,-76.99 -123.95,-76.99c-53.58,0 -96.67,31.42 -122.63,74.1c-1.3,2.13 -0.83,4.89 1.12,6.44l114.64,91.63l129.34,-88.65z" class="change-color-in-svg" fill=" rgb(51, 105, 180)" id="svg_183"/>
  <path d="m757.60329,865.98191c59.923,0 108.5,-48.577 108.5,-108.5c0,-59.923 -48.577,-108.5 -108.5,-108.5c-59.923,0 -108.5,48.577 -108.5,108.5c0,59.923 48.577,108.5 108.5,108.5z" fill="black" id="svg_184"/>
  <path d="m757.60329,846.66191c49.253,0 89.18,-39.927 89.18,-89.18c0,-49.253 -39.927,-89.18 -89.18,-89.18c-49.253,0 -89.18,39.927 -89.18,89.18c0,49.253 39.927,89.18 89.18,89.18z" fill="white" id="svg_185"/>
  <path opacity="0.2" d="m757.60329,809.14291c28.531,0 51.66,-23.129 51.66,-51.66c0,-28.531 -23.129,-51.66 -51.66,-51.66c-28.531,0 -51.66,23.129 -51.66,51.66c0,28.531 23.129,51.66 51.66,51.66z" fill="black" id="svg_186"/>
  <path d="m757.60329,794.39291c20.385,0 36.91,-16.526 36.91,-36.91c0,-20.385 -16.525,-36.91 -36.91,-36.91c-20.385,0 -36.91,16.525 -36.91,36.91c0,20.384 16.525,36.91 36.91,36.91z" fill="#3F4249" id="svg_187"/>
  <path d="m323.10329,757.43191c0.02,-0.75 0.04,-1.5 0.05,-2.25c0.73,-65.22 -51.33,-119.59 -116.53,-121.53c-13.88,-0.41 -27.25,1.53 -39.75,5.46c-3.19,1 -4.51,4.81 -2.59,7.55l55.82,79.5l96.35,35.76c3.17,1.18 6.55,-1.11 6.65,-4.49z" class="change-color-in-svg" fill=" rgb(51, 105, 180)" id="svg_188"/>
  <path d="m772.77329,798.46191l-46.13,0l-2.7,9.03l-333.21,0c-9.29,0 -17.65,-5.62 -21.17,-14.22l-78.11,-191.1l14.06,-22.58l79.59,194.74c2.87,7.01 9.69,11.59 17.26,11.59l376.31,0l-5.9,12.54z" fill="#3F4249" id="svg_189"/>
  <path d="m727.94329,821.72191l-162.1,0c-4.2,0 -7.61,-3.41 -7.61,-7.61l0,-33.54c0,-4.2 3.41,-7.61 7.61,-7.61l162.1,0l0,48.76z" fill="#3F4249" id="svg_190"/>
  <path d="m788.60329,798.46191l-46.13,0l-2.7,9.03l-333.22,0c-9.29,0 -17.65,-5.62 -21.17,-14.22l-78.11,-191.1l13.78,-23.25l79.88,195.42c2.87,7.01 9.69,11.59 17.26,11.59l376.31,0l-5.9,12.53z" fill="black" id="svg_191"/>
  <path d="m743.77329,821.72191l-162.1,0c-4.2,0 -7.61,-3.41 -7.61,-7.61l0,-33.54c0,-4.2 3.41,-7.61 7.61,-7.61l162.1,0l0,48.76z" fill="black" id="svg_192"/>
  <path d="m578.38329,622.06191l-37.42,-8.16l0.77,17.72c9.32,2.75 19.3,6.05 29.43,9.82l7.22,-19.38z" fill="black" id="svg_193"/>
  <path d="m356.38329,560.67191l-2.88,9.59c-3.06,10.17 -1.16,21.18 5.13,29.75c6.51,8.87 16.94,14.04 27.95,13.8c29.27,-0.64 91.5,0.52 153.79,17.6c4.15,1.14 8.44,-1.28 9.6,-5.42c0.83,-2.96 -0.16,-6.13 -2.52,-8.1l-68.41,-57.07c-18.77,-15.66 -42.44,-24.23 -66.88,-24.23l-23.38,0c-14.94,-0.01 -28.11,9.78 -32.4,24.08z" class="change-color-in-svg" fill=" rgb(51, 105, 180)" id="svg_194"/>
  <path d="m415.22329,598.98191c0,0 -18.83,-0.49 -25.02,-0.35c-6.7,0.15 -13.05,-3 -17.02,-8.41c-3.83,-5.21 -4.98,-11.92 -3.12,-18.12l1.76,-5.84c2.62,-8.71 10.63,-14.67 19.73,-14.67l14.24,0c8.2,0 16.26,1.59 23.76,4.61c-0.01,-0.01 -14.04,8.22 -14.33,42.78z" fill="#D9DCDE" id="svg_195"/>
  <path d="m419.64329,598.98191c0,0 -18.83,-0.49 -25.02,-0.35c-6.7,0.15 -13.05,-3 -17.02,-8.41c-3.83,-5.21 -4.98,-11.92 -3.12,-18.12l1.76,-5.84c2.62,-8.71 10.63,-14.67 19.73,-14.67l14.24,0c8.2,0 16.26,1.59 23.76,4.61c-0.01,-0.01 -14.05,8.22 -14.33,42.78z" fill="white" id="svg_196"/>
  <path d="m277.75329,592.44191l-24.29,0l0,-73.4l24.29,0c20.27,0 36.7,16.43 36.7,36.7c0,20.27 -16.43,36.7 -36.7,36.7z" class="change-color-in-svg" fill=" rgb(51, 105, 180)" id="svg_197"/>
  <path d="m253.46329,592.44191c-3.71,0 -6.72,-3.01 -6.72,-6.72l0,-59.97c0,-3.71 3.01,-6.72 6.72,-6.72c3.71,0 6.72,3.01 6.72,6.72l0,59.97c-0.01,3.71 -3.01,6.72 -6.72,6.72z" fill="black" id="svg_198"/>
  <path d="m310.97329,582.58291l-23.6,0l0,-26.84l23.6,0c7.41,0 13.42,6.01 13.42,13.42c0.01,7.41 -6,13.42 -13.42,13.42z" fill="#D9DCDE" id="svg_199"/>
  <path d="m287.38329,582.58191c-2.25,0 -4.08,-1.83 -4.08,-4.08l0,-18.69c0,-2.25 1.83,-4.08 4.08,-4.08c2.25,0 4.08,1.83 4.08,4.08l0,18.69c-0.01,2.26 -1.83,4.08 -4.08,4.08z" fill="white" id="svg_200"/>
  <path d="m461.54329,633.87191l-66.31,0l0,-10.299c0,-2.3 1.86,-4.161 4.16,-4.161l57.99,0c2.3,0 4.16,1.861 4.16,4.161l0,10.299z" fill="black" id="svg_201"/>
  <path d="m475.94329,648.33191l-95.11,0c-3.99,0 -7.23,-3.24 -7.23,-7.23c0,-3.99 3.24,-7.23 7.23,-7.23l95.11,0c3.99,0 7.23,3.24 7.23,7.23c0,3.99 -3.23,7.23 -7.23,7.23z" fill="black" id="svg_202"/>
  <path d="m470.45329,662.79191l-84.14,0c-3.99,0 -7.23,-3.24 -7.23,-7.23c0,-3.99 3.24,-7.23 7.23,-7.23l84.14,0c3.99,0 7.23,3.24 7.23,7.23c0,3.99 -3.23,7.23 -7.23,7.23z" fill="#D9DCDE" id="svg_203"/>
  <path d="m470.45329,677.25191l-84.14,0c-3.99,0 -7.23,-3.24 -7.23,-7.23c0,-3.99 3.24,-7.23 7.23,-7.23l84.14,0c3.99,0 7.23,3.24 7.23,7.23c0,3.99 -3.23,7.23 -7.23,7.23z" fill="#3F4249" id="svg_204"/>
  <path d="m470.45329,691.71191l-84.14,0c-3.99,0 -7.23,-3.24 -7.23,-7.23c0,-3.99 3.24,-7.23 7.23,-7.23l84.14,0c3.99,0 7.23,3.24 7.23,7.23c0,3.99 -3.23,7.23 -7.23,7.23z" fill="#D9DCDE" id="svg_205"/>
  <path d="m470.45329,706.17191l-84.14,0c-3.99,0 -7.23,-3.24 -7.23,-7.23c0,-3.99 3.24,-7.23 7.23,-7.23l84.14,0c3.99,0 7.23,3.24 7.23,7.23c0,3.99 -3.23,7.23 -7.23,7.23z" fill="#3F4249" id="svg_206"/>
  <path d="m464.52329,720.63191l-72.27,0c-3.99,0 -7.23,-3.24 -7.23,-7.23c0,-3.99 3.24,-7.23 7.23,-7.23l72.27,0c3.99,0 7.23,3.24 7.23,7.23c0,3.99 -3.23,7.23 -7.23,7.23z" fill="#D9DCDE" id="svg_207"/>
  <path d="m455.88329,735.09191l-54.99,0c-3.99,0 -7.23,-3.24 -7.23,-7.23c0,-3.99 3.24,-7.23 7.23,-7.23l54.99,0c3.99,0 7.23,3.24 7.23,7.23c0,3.99 -3.24,7.23 -7.23,7.23z" fill="#3F4249" id="svg_208"/>
  <path d="m448.52329,749.55191l-40.26,0c-3.99,0 -7.23,-3.24 -7.23,-7.23c0,-3.99 3.24,-7.23 7.23,-7.23l40.26,0c3.99,0 7.23,3.24 7.23,7.23c0,3.99 -3.24,7.23 -7.23,7.23z" fill="#D9DCDE" id="svg_209"/>
  <path d="m749.50329,765.51191l-24.46,-91.08c0,0 6.15,-2.41 9.74,-3.35c4.39,-1.15 9.65,-1.82 9.65,-1.82l24.46,91.07c1.43,5.35 -1.75,10.85 -7.1,12.28c-5.37,1.44 -10.86,-1.74 -12.29,-7.1z" fill="#D9DCDE" id="svg_210"/>
  <path opacity="0.2" d="m744.42329,669.27191l24.46,91.07c1.43,5.35 -1.75,10.85 -7.1,12.28c-5.35,1.43 -10.85,-1.75 -12.28,-7.1l-24.46,-91.08c0,0 4.98,-1.91 9.13,-3.18c4.15,-1.27 10.25,-1.99 10.25,-1.99z" fill="black" id="svg_211"/>
  <path d="m758.91329,766.98191c2.624,0 4.75,-2.127 4.75,-4.75c0,-2.624 -2.126,-4.75 -4.75,-4.75c-2.623,0 -4.75,2.126 -4.75,4.75c0,2.623 2.127,4.75 4.75,4.75z" fill="black" id="svg_212"/>
  <path d="m199.27329,865.98191c59.923,0 108.5,-48.577 108.5,-108.5c0,-59.923 -48.577,-108.5 -108.5,-108.5c-59.923,0 -108.5,48.577 -108.5,108.5c0,59.923 48.577,108.5 108.5,108.5z" fill="black" id="svg_213"/>
  <path d="m199.27329,846.66191c49.253,0 89.18,-39.927 89.18,-89.18c0,-49.253 -39.927,-89.18 -89.18,-89.18c-49.253,0 -89.18,39.927 -89.18,89.18c0,49.253 39.927,89.18 89.18,89.18z" fill="white" id="svg_214"/>
  <path opacity="0.2" d="m199.27329,809.14291c28.531,0 51.66,-23.129 51.66,-51.66c0,-28.531 -23.129,-51.66 -51.66,-51.66c-28.531,0 -51.66,23.129 -51.66,51.66c0,28.531 23.129,51.66 51.66,51.66z" fill="black" id="svg_215"/>
  <path d="m199.27329,794.39291c20.385,0 36.91,-16.526 36.91,-36.91c0,-20.385 -16.525,-36.91 -36.91,-36.91c-20.385,0 -36.91,16.525 -36.91,36.91c0,20.384 16.525,36.91 36.91,36.91z" fill="#3F4249" id="svg_216"/>
  <path opacity="0.2" d="m515.82329,785.93191c24.34,0 44.07,-19.73 44.07,-44.07c0,-24.339 -19.73,-44.07 -44.07,-44.07c-24.339,0 -44.07,19.731 -44.07,44.07c0,24.34 19.731,44.07 44.07,44.07z" fill="black" id="svg_217"/>
  <path opacity="0.2" d="m585.57329,768.72191l-35.23,0l0,-56.12l35.23,0c15.5,0 28.06,12.56 28.06,28.06c0.01,15.49 -12.56,28.06 -28.06,28.06z" fill="black" id="svg_218"/>
  <path d="m526.26329,785.93191c24.339,0 44.07,-19.73 44.07,-44.07c0,-24.339 -19.731,-44.07 -44.07,-44.07c-24.339,0 -44.07,19.731 -44.07,44.07c0,24.34 19.731,44.07 44.07,44.07z" fill="#D9DCDE" id="svg_219"/>
  <path d="m526.26429,771.13191c16.165,0 29.27,-13.104 29.27,-29.27c0,-16.165 -13.105,-29.27 -29.27,-29.27c-16.166,0 -29.27,13.105 -29.27,29.27c0,16.166 13.104,29.27 29.27,29.27z" fill="#D9DCDE" id="svg_220"/>
  <path opacity="0.2" d="m526.26429,771.13191c16.165,0 29.27,-13.104 29.27,-29.27c0,-16.165 -13.105,-29.27 -29.27,-29.27c-16.166,0 -29.27,13.105 -29.27,29.27c0,16.166 13.104,29.27 29.27,29.27z" fill="black" id="svg_221"/>
  <path d="m194.89329,772.96191c-1.95,0 -3.92,-0.53 -5.69,-1.63c-5.05,-3.15 -6.6,-9.8 -3.45,-14.85l182.87,-293.98c3.15,-5.05 6.86,-1.44 11.91,1.71c5.05,3.15 9.54,4.64 6.39,9.69l-182.87,293.98c-2.05,3.28 -5.56,5.08 -9.16,5.08z" fill="#D9DCDE" id="svg_222"/>
  <g opacity="0.2" id="svg_223">
   <path opacity="0.2" d="m194.89329,772.96191c-1.95,0 -3.92,-0.53 -5.69,-1.63c-5.05,-3.15 -6.6,-9.8 -3.45,-14.85l182.87,-293.98c3.15,-5.05 6.86,-1.44 11.91,1.71c5.05,3.15 9.54,4.64 6.39,9.69l-182.87,293.98c-2.05,3.28 -5.56,5.08 -9.16,5.08z" fill="black" id="svg_224"/>
  </g>
  <path d="m222.17329,697.92191l146.44,-235.42c3.15,-5.05 6.86,-1.44 11.91,1.71c5.05,3.15 9.54,4.64 6.39,9.69l-147.14,236.54l-17.6,-12.52z" fill="black" id="svg_225"/>
  <path d="m665.26329,742.32291l154.96,0l-10.95,21.56l-146.4,0l2.39,-21.56z" fill="black" id="svg_226"/>
  <path d="m194.98329,766.98191c2.624,0 4.75,-2.127 4.75,-4.75c0,-2.624 -2.126,-4.75 -4.75,-4.75c-2.623,0 -4.75,2.126 -4.75,4.75c0,2.623 2.127,4.75 4.75,4.75z" fill="black" id="svg_227"/>
  <path d="m721.19329,339.83291l10.54,-4.04l4.57,1.72l7.3,9.39c0.7,0.9 2,1.06 2.9,0.36c0.82,-0.63 1.04,-1.77 0.52,-2.67l-7.27,-12.53l-5.08,-1.61l-1.64,0.57l-11.84,8.81z" fill="#F69797" id="svg_228"/>
  <path d="m729.24329,346.57291l1.489,-4.99l3.161,-0.15l2.12,9.52c0.2,0.89 1.1,1.45 1.99,1.22c0.74,-0.19 1.249,-0.87 1.219,-1.64l-0.389,-9.78l-2.52,-3.25l-4.57,-1.72l-10.54,4.04l4.949,8.48l3.091,-1.73z" fill="#F69797" id="svg_229"/>
  <path opacity="0.15" d="m721.19329,339.83291l10.54,-4.04l4.57,1.72l7.3,9.39c0.7,0.9 2,1.06 2.9,0.36c0.82,-0.63 1.04,-1.77 0.52,-2.67l-7.27,-12.53l-5.08,-1.61l-1.64,0.57l-11.84,8.81z" fill="black" id="svg_230"/>
  <path opacity="0.15" d="m729.24329,346.57291l1.489,-4.99l3.161,-0.15l2.12,9.52c0.2,0.89 1.1,1.45 1.99,1.22c0.74,-0.19 1.249,-0.87 1.219,-1.64l-0.389,-9.78l-2.52,-3.25l-4.57,-1.72l-10.54,4.04l4.949,8.48l3.091,-1.73z" fill="black" id="svg_231"/>
  <path d="m728.30329,410.42191l-1.87,-43.54c5.28,-11.02 3.08,-11.85 3.89,-14.1c0.59,-1.63 4.71,-4.79 6.93,-6.39c0.79,-0.57 1.01,-1.65 0.51,-2.49c-0.53,-0.89 -1.66,-1.19 -2.56,-0.68l-4.58,2.58c-2.49,1.4 -5.64,0.55 -7.08,-1.92c-1.34,-2.3 -0.74,-5.24 1.39,-6.83l8.07,-6.01l12.38,-4.33c1.07,-0.37 1.69,-1.48 1.46,-2.59c-0.27,-1.27 -1.56,-2.05 -2.81,-1.69l-15.87,4.53c-0.27,0.08 -0.54,0.18 -0.79,0.3l-12.05,5.78c-1.55,0.74 -2.61,2.23 -2.81,3.93l-3.2,27.41l-8.91,46.7" fill="#F69797" id="svg_232"/>
  <path d="m488.43329,469.36291l-33.28,67.7l15.9,11.4l40.88,-62.45l-23.5,-16.65z" fill="#F69797" id="svg_233"/>
  <path d="m491.08329,464.80291l35.03,-60.37c2.4,-4.13 6.48,-7.01 11.18,-7.88l32.04,-5.91l16.29,14.8l27.14,111.29l1.88,36.5c1.19,4.44 -2.16,8.8 -6.76,8.8l-25.7,0c-3.36,0 -6.25,-2.4 -6.87,-5.7l-23.01,-122.72l-37.94,49.25l-23.28,-18.06z" fill="#21252B" id="svg_234"/>
  <path d="m612.76329,383.81191l38.83,-5.97c6.01,-0.93 12.04,1.56 15.65,6.46l30.63,41.5l2.8,-16.27l27.61,0l0.11,47.77c0.03,13.77 -16.03,21.32 -26.61,12.49l-40.92,-34.14l31.48,118.13c0.77,2.88 -1.4,5.7 -4.38,5.7l-27.68,-0.01l-14.46,-54.7l-28.84,-103.67l-4.22,-17.29z" fill="#21252B" id="svg_235"/>
  <path d="m605.34329,516.43191l43.56,0l2.66,9.76l-44.14,0l-2.08,-9.76z" fill="black" id="svg_236"/>
  <path d="m575.69329,557.61291l59.88,162.87l29.7,-47.54l-24.68,-99.29c-0.25,-1.01 0.51,-1.98 1.55,-1.98c0.68,0 1.28,0.43 1.51,1.07l30.26,86.38l-77.68,124.35l24.03,21.16l95.67,-125.57c6.85,-8.99 8.91,-20.75 5.53,-31.54l-27.34,-88.05l-1.9,-6.2l0.14,0.57c0.69,2.87 -1.48,5.63 -4.43,5.63l-20.52,-0.01c-4.19,0 -7.86,-2.83 -8.92,-6.88l-6.92,-26.39l-44.14,0l7.22,26.93c1.2,4.47 -2.17,8.86 -6.79,8.86l-25.66,0c-2.86,-0.01 -5.43,-1.73 -6.51,-4.37z" class="change-color-in-svg" fill=" rgb(51, 105, 180)" id="svg_237"/>
  <path opacity="0.2" d="m575.69329,557.61291l59.88,162.87l29.7,-47.54l-24.68,-99.29c-0.25,-1.01 0.51,-1.98 1.55,-1.98c0.68,0 1.28,0.43 1.51,1.07l30.26,86.38l-77.68,124.35l24.03,21.16l95.67,-125.57c6.85,-8.99 8.91,-20.75 5.53,-31.54l-27.34,-88.05l-1.9,-6.2l0.14,0.57c0.69,2.87 -1.48,5.63 -4.43,5.63l-20.52,-0.01c-4.19,0 -7.86,-2.83 -8.92,-6.88l-6.92,-26.39l-44.14,0l7.22,26.93c1.2,4.47 -2.17,8.86 -6.79,8.86l-25.66,0c-2.86,-0.01 -5.43,-1.73 -6.51,-4.37z" fill="white" id="svg_238"/>
  <path d="m651.61329,763.45191l13.74,39.04l34,-0.25l-19.83,-75.41l-27.91,36.62z" class="change-color-in-svg" fill=" rgb(51, 105, 180)" id="svg_239"/>
  <path opacity="0.2" d="m651.61329,763.45191l13.74,39.04l34,-0.25l-19.83,-75.41l-27.91,36.62z" fill="white" id="svg_240"/>
  <path d="m700.67329,409.53291l-1.43,8.36l21.26,0l1.52,-3.58l1.41,3.58l5.02,0.52l-0.17,-8.88l-27.61,0z" fill="#3F4249" id="svg_241"/>
  <path d="m610.18329,379.80191c-1.88,-9.68 -9.49,-16.22 -18.93,-15.16c-9.45,1.06 -16.05,11.25 -14.98,20.78c0.39,3.45 -0.5,2.85 1.65,6.42c2.02,3.36 3.82,9.41 8.38,14.95c3.96,4.8 13.08,4.83 15.87,4.52c5.95,-0.67 16.17,-4.98 18.52,-11.84c1.03,-3.02 -3.45,-12.67 -6.71,-17.26l-3.8,-2.41z" fill="#F69797" id="svg_242"/>
  <path d="m606.29329,337.87191c4.3,-2.16 6.03,-7.4 3.87,-11.7c-2.16,-4.3 -7.4,-6.03 -11.7,-3.87c-0.27,0.14 -0.96,0.21 -0.78,0.44c4.99,6.17 6.92,15.98 8.61,15.13z" fill="#21252B" id="svg_243"/>
  <path d="m605.83329,341.02191c0,0 -32.68,-15.73 -31.25,7.83l0.23,6.11l1.35,30.92c0.1,0.9 34.78,-2.69 34.51,-3.8l-3.99,-17.97c0.2,-1.61 0.22,-3.43 -0.01,-5.46c-0.73,-9.23 -0.84,-17.63 -0.84,-17.63z" fill="#F69797" id="svg_244"/>
  <path d="m594.72329,317.11291c0,0 30.09,42.38 9.61,54.31c-17.71,10.36 -32.04,-18.01 -32.04,-18.01l-7.04,-19.34l12.03,-11.8l17.44,-5.16z" fill="#F69797" id="svg_245"/>
  <path d="m565.46329,326.14191c1.68,-1.06 3.47,-1.68 5.27,-1.93c0.8,-0.11 1.34,-0.89 1.2,-1.68c-0.69,-3.83 1.26,-7.78 4.97,-9.46c2.61,-1.18 5.49,-0.97 7.82,0.32c0.75,0.41 1.7,0.15 2.04,-0.64c1.45,-3.34 4.28,-6.1 8.15,-7.32c5.62,-1.77 11.88,0.53 15,5.53c4.55,7.29 1.12,16.76 -6.96,19.48c-5.66,1.91 -12.03,-0.38 -15.24,-5.42c-1.14,-1.8 -1.77,-3.73 -1.97,-5.66c-2.81,1.12 -7.3,2.57 -11.09,4.9c0.09,0.01 0.18,0.02 0.27,0.04l-6.06,5.68c0,0 6.45,20.15 5.1,20.3c-6,0.66 -12,-2.89 -13.98,-9.15c-1.78,-5.6 0.51,-11.84 5.48,-14.99z" fill="#21252B" id="svg_246"/>
  <path d="m592.44329,329.48191c-3.51,-2.07 -8.53,-3.32 -12.34,-1.57c-5.5,2.53 -7.57,8.5 -4.87,13.32l0.58,1.04c0.57,1.02 0.2,2.3 -0.81,2.87c-0.93,0.52 -1.33,1.66 -0.92,2.65l2.17,5.23c0.17,0.41 -0.02,0.88 -0.42,1.06c-0.39,0.18 -0.85,0.03 -1.05,-0.34l-1.94,-3.44l-5.44,-21.29l14.45,-11.79l9.47,2.75l1.12,9.51z" fill="#21252B" id="svg_247"/>
  <path d="m572.48329,349.35291c0,0 -2.71,-3.651 -6.45,-0.451c-4.22,3.67 0.22,14.44 8.69,12.52c4.43,-0.98 2.78,-3.229 1.02,-6.389c-3.26,-5.68 -3.26,-5.68 -3.26,-5.68z" fill="#F69797" id="svg_248"/>
  <path opacity="0.3" d="m566.71329,351.85191c0.68,-0.84 1.41,-1.3 2.17,-1.38c0.76,-0.08 1.57,0.22 2.34,0.93c0.77,0.71 1.37,1.63 1.73,2.78l0.36,0.91c0.09,0.29 -0.06,0.57 -0.35,0.66c-0.29,0.09 -0.57,-0.06 -0.66,-0.35l-0.36,-0.91c-0.09,-0.29 -0.68,-1.68 -1.43,-2.32c-0.54,-0.46 -1.08,-0.69 -1.56,-0.7c-0.45,0.06 -0.98,0.38 -1.45,0.92c-0.17,0.21 -0.55,0.25 -0.76,0.08c-0.16,-0.03 -0.17,-0.34 -0.03,-0.62z" fill="black" id="svg_249"/>
  <path opacity="0.15" d="m575.09329,361.34191c0,0 1.7,-0.33 2.36,-1.5l-2.13,6.6l-0.23,-5.1z" fill="black" id="svg_250"/>
  <path d="m602.37329,331.63291l-2.35,0.57c-0.22,0.03 -0.54,-0.07 -0.59,-0.37c-0.04,-0.3 0.07,-0.54 0.37,-0.59l2.35,-0.57c0.3,-0.04 0.59,-0.16 0.87,-0.28c0.56,-0.31 1.63,-0.85 2.56,-1.74c0.2,-0.18 0.51,-0.15 0.69,0.05c0.18,0.2 0.15,0.51 -0.05,0.69c-1.01,0.91 -2.2,1.61 -2.77,1.85c-0.36,0.13 -0.72,0.26 -1.08,0.39z" fill="#F69797" id="svg_251"/>
  <path opacity="0.15" d="m608.82329,373.73191c-2.07,0.53 -4.71,0.79 -7.76,0.2c-5.19,1.44 -9.46,0.21 -12.24,-1.16c-0.23,-0.15 -0.34,-0.43 -0.19,-0.65c0.15,-0.23 0.43,-0.34 0.65,-0.19c2.28,1.17 5.56,2.16 9.55,1.55c-0.1,-0.04 0,0 0,0c3.91,-0.65 6.9,-2.71 8.88,-4.76l1.11,5.01z" fill="black" id="svg_252"/>
  <path d="m603.27329,357.48291c0,0 -2.8,1.19 -5.88,1.23c-2.68,0.04 -4.54,-0.75 -4.54,-0.75c0,0 0.44,4.13 4.7,4.08c5.01,-0.05 5.72,-4.56 5.72,-4.56z" fill="white" id="svg_253"/>
  <path d="m589.75329,349.61291c1.038,0 1.88,-0.842 1.88,-1.88c0,-1.038 -0.842,-1.88 -1.88,-1.88c-1.038,0 -1.88,0.842 -1.88,1.88c0,1.038 0.842,1.88 1.88,1.88z" fill="#21252B" id="svg_254"/>
  <path d="m590.28329,347.23291c0.21,0 0.38,-0.17 0.38,-0.38c0,-0.21 -0.17,-0.38 -0.38,-0.38c-0.21,0 -0.38,0.17 -0.38,0.38c0,0.21 0.17,0.38 0.38,0.38z" fill="white" id="svg_255"/>
  <path d="m603.53329,343.92191c1.038,0 1.88,-0.841 1.88,-1.88c0,-1.038 -0.842,-1.88 -1.88,-1.88c-1.039,0 -1.88,0.842 -1.88,1.88c0,1.039 0.841,1.88 1.88,1.88z" fill="#21252B" id="svg_256"/>
  <path d="m604.07329,341.54291c0.21,0 0.38,-0.171 0.38,-0.38c0,-0.21 -0.17,-0.38 -0.38,-0.38c-0.21,0 -0.38,0.17 -0.38,0.38c0,0.209 0.17,0.38 0.38,0.38z" fill="white" id="svg_257"/>
  <g opacity="0.3" id="svg_258">
   <path opacity="0.3" d="m601.72329,354.47191l-2.23,1.1c-0.28,0.12 -0.57,0 -0.76,-0.25c-0.12,-0.28 0,-0.57 0.25,-0.76l2.23,-1.1c0.53,-0.3 0.81,-0.99 0.51,-1.52c-0.3,-0.53 -0.99,-0.81 -1.52,-0.51c-0.28,0.12 -0.57,0 -0.76,-0.25c-0.19,-0.25 0,-0.57 0.25,-0.76c1.08,-0.53 2.4,-0.11 3.01,0.94c0.53,1.26 0.1,2.58 -0.98,3.11z" fill="black" id="svg_259"/>
  </g>
  <path d="m606.57329,335.46191l-7.57,3.17l-1.04,0.44l-6.6,2.76l-0.07,0.03l-8.54,3.58c-1.39,0.58 -2.03,2.16 -1.45,3.55l0.81,1.94c1.57,3.75 5.91,5.53 9.66,3.96c3.75,-1.57 5.53,-5.91 3.96,-9.66l-0.81,-1.94c-0.23,-0.56 -0.67,-1.02 -1.2,-1.3l2.64,-1.11c-0.17,0.56 -0.08,1.18 0.15,1.73l0.81,1.94c1.57,3.75 5.91,5.53 9.66,3.96c3.75,-1.57 5.53,-5.91 3.96,-9.66l-0.81,-1.94c-0.59,-1.39 -2.17,-2.03 -3.56,-1.45zm-12.63,8.23l0.81,1.94c1.34,3.19 -0.13,6.91 -3.32,8.25c-3.19,1.34 -6.91,-0.13 -8.25,-3.32l-0.81,-1.94c-0.35,-0.83 0.05,-1.82 0.89,-2.17l8.54,-3.58l0.07,-0.03c0.76,-0.32 1.72,0.02 2.07,0.85zm16.02,-4.43c1.34,3.19 -0.13,6.91 -3.32,8.25c-3.19,1.34 -6.91,-0.13 -8.25,-3.32l-0.81,-1.94c-0.35,-0.83 0.05,-1.82 0.89,-2.17l1.04,-0.44l7.57,-3.17c0.83,-0.35 1.82,0.05 2.17,0.89l0.71,1.9z" fill="#21252B" id="svg_260"/>
  <path d="m576.03329,382.66191l-6.69,7.971l6.81,31.88c0,0 5.79,-10.511 12.21,-13.901l-9.81,-16.979l-2.52,-8.971z" fill="#3F4249" id="svg_261"/>
  <path d="m610.18329,379.80291l-0.33,-1.41l10.98,1.24l2.75,6.39l10.31,20.91c0,0 -11.87,-4.58 -16.15,-3.16l-3.44,-21.1l-4.12,-2.87z" fill="#3F4249" id="svg_262"/>
  <path d="m617.74329,403.76191c0,0 -3.51,5.58 -13.95,7.32c-6.91,1.15 -12.43,-0.93 -15.42,-2.47c0,0 -0.68,0.38 -0.9,0.52c-0.28,0.18 -1.1,0.76 -1.1,0.76l18.97,106.54l43.56,0l-31.16,-112.67z" fill="white" id="svg_263"/>
  <path d="m589.75329,786.17291l4.17,-5.24c0.74,-0.93 2.1,-1.05 2.99,-0.26l26.5,23.34c0.86,0.76 0.94,2.07 0.18,2.93l-4.38,4.94c-0.76,0.85 -2.06,0.93 -2.91,0.18l-26.29,-23.03c-0.84,-0.74 -0.95,-1.99 -0.26,-2.86z" class="change-color-in-svg" fill=" rgb(51, 105, 180)" id="svg_264"/>
  <path d="m665.10329,809.37191l-2.12,-6.15c-0.46,-1.34 0.53,-2.74 1.94,-2.75l35.1,-0.26c0.93,-0.01 1.76,0.61 2.01,1.51l1.79,6.4c0.37,1.32 -0.62,2.63 -1.99,2.63l-34.77,0c-0.89,0.01 -1.67,-0.55 -1.96,-1.38z" class="change-color-in-svg" fill=" rgb(51, 105, 180)" id="svg_265"/>
  <path d="m591.92329,790.70291l-16.34,27.459l21,15.87l18.63,-22.93l-23.29,-20.399z" fill="#F69797" id="svg_266"/>
  <path opacity="0.15" d="m581.99329,820.86291l12.27,-14.88" stroke="black" stroke-width="1.5" stroke-miterlimit="10" stroke-linecap="round" stroke-linejoin="round" id="svg_267"/>
  <path opacity="0.15" d="m598.59229,810.31291l-11.3,14.13" stroke="black" stroke-width="1.5" stroke-miterlimit="10" stroke-linecap="round" stroke-linejoin="round" id="svg_268"/>
  <path opacity="0.15" d="m603.27329,815.23291l-7.49,9.31" stroke="black" stroke-width="1.5" stroke-miterlimit="10" stroke-linecap="round" stroke-linejoin="round" id="svg_269"/>
  <path d="m617.00329,849.61191l-11.86,-24.11c-0.56,-1.13 -1.73,-1.82 -2.99,-1.75l-13.37,0.71c-1.64,-0.02 -3.23,-0.61 -4.48,-1.66l-1.08,-0.9c-1.7,-1.43 -2.62,-3.58 -2.47,-5.8c0.11,-1.68 -0.62,-3.3 -1.94,-4.33c-1.96,-1.52 -4.72,-1.39 -6.54,0.29l-13.9,12.92l34.68,33.96l26.46,0l-2.51,-9.33z" class="change-color-in-svg" fill=" rgb(51, 105, 180)" id="svg_270"/>
  <path opacity="0.3" d="m617.00329,849.61191l-11.86,-24.11c-0.56,-1.13 -1.73,-1.82 -2.99,-1.75l-13.37,0.71c-1.64,-0.02 -3.23,-0.61 -4.48,-1.66l-1.08,-0.9c-1.7,-1.43 -2.62,-3.58 -2.47,-5.8c0.11,-1.68 -0.62,-3.3 -1.94,-4.33c-1.96,-1.52 -4.72,-1.39 -6.54,0.29l-13.9,12.92l34.68,33.96l26.46,0l-2.51,-9.33z" fill="black" id="svg_271"/>
  <path d="m630.12329,858.92191c0,-5.469 -4.43,-9.899 -9.9,-9.899c-5.47,0 -9.9,4.43 -9.9,9.899l19.8,0z" fill="#242830" id="svg_272"/>
  <path d="m558.37329,824.97191l-3.12,2.9c-1.31,1.21 -1.34,3.27 -0.07,4.53l33.11,32.68c0.59,0.58 1.38,0.9 2.2,0.9l36.5,0c1.73,0 3.14,-1.4 3.14,-3.14l0,-3.91l-37.07,0l-34.69,-33.96z" fill="white" id="svg_273"/>
  <path opacity="0.2" d="m569.99329,836.35191l5.36,-5.26c2.63,-2.58 2.63,-6.82 0,-9.4l-6.61,-6.47l-10.37,9.74l11.62,11.39z" fill="white" id="svg_274"/>
  <path opacity="0.6" d="m601.51329,858.92191l-7.92,-23.299l-17.21,-5.84l-6.39,6.57l23.05,22.579l8.47,-0.01z" fill="white" id="svg_275"/>
  <path d="m752.36329,849.02191l-4.41,9.9l-77.98,0.06l0,-19.82c0,-2.56 1.82,-4.77 4.34,-5.25c1.28,-0.24 2.6,-0.02 3.72,0.64l5.26,3.09c1.77,1.04 3.84,1.47 5.89,1.22l2.06,-0.26c2.15,-0.27 4.14,-1.27 5.63,-2.84l8.63,-9.08c1.06,-1.11 2.73,-1.38 4.08,-0.65l42.78,22.99z" class="change-color-in-svg" fill=" rgb(51, 105, 180)" id="svg_276"/>
  <path opacity="0.3" d="m752.36329,849.02191l-4.41,9.9l-77.98,0.06l0,-19.82c0,-2.56 1.82,-4.77 4.34,-5.25c1.28,-0.24 2.6,-0.02 3.72,0.64l5.26,3.09c1.77,1.04 3.84,1.47 5.89,1.22l2.06,-0.26c2.15,-0.27 4.14,-1.27 5.63,-2.84l8.63,-9.08c1.06,-1.11 2.73,-1.38 4.08,-0.65l42.78,22.99z" fill="black" id="svg_277"/>
  <path opacity="0.2" d="m685.53329,858.97191l0.21,-9.02c0.1,-3.68 -2.84,-6.73 -6.53,-6.76l-9.25,-0.07l0,15.85l15.57,0z" fill="white" id="svg_278"/>
  <path opacity="0.6" d="m738.05329,858.92191l-25.52,-17.42l-26.96,6.79l0,10.68l52.48,-0.05z" fill="white" id="svg_279"/>
  <path d="m742.46229,858.92191c0,-5.47 4.43,-9.9 9.9,-9.9c5.47,0 9.9,4.43 9.9,9.9l-19.8,0z" fill="#242830" id="svg_280"/>
  <path d="m742.46229,858.92191c0,-5.47 4.43,-9.9 9.9,-9.9c5.47,0 9.9,4.43 9.9,9.9l-19.8,0z" fill="white" id="svg_281"/>
  <path d="m611.21329,837.85191l-5.33,0c-0.62,0 -1.11,-0.5 -1.11,-1.11c0,-0.62 0.5,-1.11 1.11,-1.11l4.23,0l1.1,2.22z" fill="white" id="svg_282"/>
  <path d="m613.41329,842.32191l-4.92,0c-0.62,0 -1.11,-0.5 -1.11,-1.11c0,-0.62 0.5,-1.11 1.11,-1.11l3.83,0l1.09,2.22z" fill="white" id="svg_283"/>
  <path d="m615.61329,846.80191l-4.52,0c-0.62,0 -1.11,-0.5 -1.11,-1.11c0,-0.62 0.5,-1.11 1.11,-1.11l3.42,0l1.1,2.22z" fill="white" id="svg_284"/>
  <path d="m676.28329,833.53291l-8.01,-22.76l33.2,0l3.96,15.99l-8.78,9.24c-1.35,1.42 -3.16,2.33 -5.11,2.57l-2.67,0.33c-1.85,0.23 -3.73,-0.16 -5.34,-1.11l-7.25,-4.26z" fill="#F69797" id="svg_285"/>
  <path opacity="0.15" d="m686.09329,839.16191l-4.27,-18.81" stroke="black" stroke-width="1.5" stroke-miterlimit="10" stroke-linecap="round" stroke-linejoin="round" id="svg_286"/>
  <path opacity="0.15" d="m687.91229,819.57291l4.56,18.88" stroke="black" stroke-width="1.5" stroke-miterlimit="10" stroke-linecap="round" stroke-linejoin="round" id="svg_287"/>
  <path opacity="0.15" d="m694.65329,818.88191l3.65,15.2" stroke="black" stroke-width="1.5" stroke-miterlimit="10" stroke-linecap="round" stroke-linejoin="round" id="svg_288"/>
  <path d="m721.08329,838.64191c-0.41,-0.46 -0.37,-1.16 0.09,-1.57l3.38,-2.99l2.09,1.12l-3.99,3.54c-0.46,0.41 -1.16,0.36 -1.57,-0.1z" fill="white" id="svg_289"/>
  <path d="m726.00329,840.27191c-0.41,-0.46 -0.37,-1.16 0.09,-1.57l2.66,-2.36l2.09,1.12l-3.27,2.9c-0.46,0.41 -1.16,0.37 -1.57,-0.09z" fill="white" id="svg_290"/>
  <path d="m730.92329,841.89191c-0.41,-0.46 -0.37,-1.16 0.09,-1.57l1.94,-1.72l2.09,1.12l-2.56,2.27c-0.45,0.4 -1.16,0.36 -1.56,-0.1z" fill="white" id="svg_291"/>
  <path d="m511.93329,486.01191l5.11,-6.63l-17.19,-12.19l-3.32,2.05l0.92,-3.74l-4.8,-3.41l-4.22,7.27l23.5,16.65z" fill="#3F4249" id="svg_292"/>
  <path d="m455.15329,537.06291l-17.08,-4.57l-16.86,0c-0.75,0 -1.4,0.51 -1.58,1.24c-0.2,0.82 0.24,1.65 1.04,1.93c4.11,1.42 16.47,3.49 27.12,7.21c7.47,2.61 14.1,7.16 16.41,8.04c6.31,2.41 6.85,-2.45 6.85,-2.45l-15.9,-11.4z" fill="#F69797" id="svg_293"/>
  <path d="m630.12329,858.92191c0,-5.469 -4.43,-9.899 -9.9,-9.899c-5.47,0 -9.9,4.43 -9.9,9.899l19.8,0z" fill="white" id="svg_294"/>
  <path d="m669.96329,858.92191l0,3.93c0,1.73 1.4,3.14 3.14,3.14l86.02,0c1.73,0 3.14,-1.4 3.14,-3.14l0,-3.92l-92.3,-0.01z" fill="white" id="svg_295"/>
  <path opacity="0.15" d="m640.58329,573.65191l24.68,99.29l-6.35,9.98l-23.35,37.56l-1.32,-5.12l22.83,-39.81l-18.31,-73.06c-2.41,-9.57 -1.77,-19.65 1.82,-28.84z" fill="black" id="svg_296"/>
  <path opacity="0.15" d="m679.52329,726.83191l-8.24,10.49l17.71,62.9l9.83,0l-19.3,-73.39z" fill="black" id="svg_297"/>
  <path opacity="0.15" d="m692.35329,553.84191l29.14,92.24c3.57,11.31 1.43,23.65 -5.76,33.09l-93.94,123.42l-8.95,-7.88l96.96,-129.25c1.26,-1.67 1.63,-3.85 1.01,-5.84l-31.01,-100.15l8.41,0c2.94,-0.01 5.02,-2.84 4.14,-5.63z" fill="black" id="svg_298"/>
  <path d="m635.33329,527.32191l-14.91,0c-1.52,0 -2.76,-1.24 -2.76,-2.76l0,-6.63c0,-1.52 1.24,-2.76 2.76,-2.76l14.91,0c1.52,0 2.76,1.24 2.76,2.76l0,6.63c0,1.52 -1.24,2.76 -2.76,2.76z" fill="#D9DCDE" id="svg_299"/>
  <path d="m634.03329,525.93191l-12.31,0c-1.21,0 -2.19,-0.98 -2.19,-2.19l0,-4.99c0,-1.21 0.98,-2.19 2.19,-2.19l12.31,0c1.21,0 2.19,0.98 2.19,2.19l0,4.99c0,1.21 -0.98,2.19 -2.19,2.19z" fill="white" id="svg_300"/>
  <path d="m645.25329,516.43191l-2.49,0l0,10.89l2.49,0l0,-10.89z" class="change-color-in-svg" fill=" rgb(51, 105, 180)" id="svg_301"/>
  <path opacity="0.2" d="m645.25329,516.43191l-2.49,0l0,10.89l2.49,0l0,-10.89z" fill="white" id="svg_302"/>
  <path d="m613.59329,516.43191l-2.49,0l0,10.89l2.49,0l0,-10.89z" class="change-color-in-svg" fill=" rgb(51, 105, 180)" id="svg_303"/>
  <path opacity="0.2" d="m613.59329,516.43191l-2.49,0l0,10.89l2.49,0l0,-10.89z" fill="white" id="svg_304"/>
  <path d="m377.51329,475.54191c12.056,0 21.83,-9.773 21.83,-21.83c0,-12.056 -9.774,-21.83 -21.83,-21.83c-12.056,0 -21.83,9.774 -21.83,21.83c0,12.057 9.774,21.83 21.83,21.83z" fill="black" id="svg_305"/>
  <path d="m433.75329,461.68191l-41.57,0l0,-15.95l41.57,0c4.41,0 7.98,3.57 7.98,7.98c0,4.4 -3.58,7.97 -7.98,7.97z" fill="black" id="svg_306"/>
  <path d="m324.52329,461.68191l41.57,0l0,-15.95l-41.57,0c-4.41,0 -7.98,3.57 -7.98,7.98c0,4.4 3.57,7.97 7.98,7.97z" fill="black" id="svg_307"/>
  <path d="m436.29329,489.09191c-0.21,0 -0.43,-0.03 -0.65,-0.09l-43.56,-12.03c-0.95,-0.26 -1.64,-1.07 -1.77,-2.04l-1.29,-10.21c-0.17,-1.33 0.78,-2.55 2.11,-2.72c1.33,-0.17 2.55,0.78 2.72,2.11l1.09,8.61l42,11.59c1.3,0.36 2.06,1.7 1.7,2.99c-0.3,1.08 -1.28,1.79 -2.35,1.79z" fill="black" id="svg_308"/>
  <path d="m318.89329,489.09191c0.21,0 0.43,-0.03 0.65,-0.09l43.56,-12.03c0.95,-0.26 1.64,-1.07 1.77,-2.04l1.29,-10.21c0.17,-1.33 -0.78,-2.55 -2.11,-2.72c-1.33,-0.17 -2.55,0.78 -2.72,2.11l-1.09,8.61l-42,11.59c-1.3,0.36 -2.06,1.7 -1.7,2.99c0.3,1.08 1.28,1.79 2.35,1.79z" fill="black" id="svg_309"/>
  <path d="m433.71329,461.68291c4.402,0 7.97,-3.569 7.97,-7.97c0,-4.402 -3.568,-7.97 -7.97,-7.97c-4.402,0 -7.97,3.568 -7.97,7.97c0,4.401 3.568,7.97 7.97,7.97z" fill="#3F4249" id="svg_310"/>
  <path d="m377.51329,470.25191c9.135,0 16.54,-7.405 16.54,-16.54c0,-9.135 -7.405,-16.54 -16.54,-16.54c-9.135,0 -16.54,7.405 -16.54,16.54c0,9.135 7.405,16.54 16.54,16.54z" fill="#D9DCDE" id="svg_311"/>
  <path d="m367.54329,453.71291c0,-8.01 5.69,-14.691 13.26,-16.221c-1.06,-0.21 -2.16,-0.33 -3.29,-0.33c-9.14,0 -16.54,7.411 -16.54,16.541c0,9.14 7.41,16.539 16.54,16.539c1.13,0 2.23,-0.11 3.29,-0.33c-7.56,-1.51 -13.26,-8.189 -13.26,-16.199z" fill="#3F4249" id="svg_312"/>
  <path d="m1237.73329,906.87191l-1168.4,0c-0.36,0 -0.6,-0.24 -0.6,-0.6c0,-0.36 0.24,-0.6 0.6,-0.6l1168.52,0c0.36,0 0.6,0.24 0.6,0.6c0,0.36 -0.36,0.6 -0.72,0.6z" fill="#B2B6BB" id="svg_313"/>
  <path d="m1008.16329,759.97091c0,0 -30.18,-38.66 -32.06,-100.43c0,0 47.62,31.14 60.82,88.65l-28.76,11.78z" class="change-color-in-svg" fill=" rgb(51, 105, 180)" id="svg_314"/>
  <path d="m1007.21329,739.07191c0,0 1.17,-49.03 38.86,-98c0,0 17.09,54.27 -9.16,107.12l-29.7,-9.12z" class="change-color-in-svg" fill=" rgb(51, 105, 180)" id="svg_315"/>
  <path opacity="0.4" d="m1046.08329,641.07191c-15.95,20.72 -25.34,41.43 -30.89,58.46c9.05,13.16 17.32,29.43 21.74,48.67c26.24,-52.85 9.15,-107.13 9.15,-107.13z" fill="white" id="svg_316"/>
  <path d="m1038.71329,668.02191l-9.74,56.18" stroke="black" stroke-miterlimit="10" stroke-linecap="round" stroke-linejoin="round" id="svg_317"/>
  <path d="m1031.12329,676.71191l3.25,16.33l9.65,-10.77" stroke="black" stroke-miterlimit="10" stroke-linecap="round" stroke-linejoin="round" id="svg_318"/>
  <path d="m1044.92329,700.46191l-14.1,13.06l-9.01,-14.3" stroke="black" stroke-miterlimit="10" stroke-linecap="round" stroke-linejoin="round" id="svg_319"/>
  <path opacity="0.2" d="m1008.16329,759.97091c0,0 -30.18,-38.66 -32.06,-100.43c0,0 47.62,31.14 60.82,88.65l-28.76,11.78z" fill="white" id="svg_320"/>
  <path d="m992.83329,694.63091l29.23,61.86" stroke="black" stroke-miterlimit="10" stroke-linecap="round" stroke-linejoin="round" id="svg_321"/>
  <path d="m991.63329,706.11091l12.05,11.48l1.69,-14.37" stroke="black" stroke-miterlimit="10" stroke-linecap="round" stroke-linejoin="round" id="svg_322"/>
  <path d="m1016.57329,717.59091l-4.01,18.79l-15.6,-6.51" stroke="black" stroke-miterlimit="10" stroke-linecap="round" stroke-linejoin="round" id="svg_323"/>
  <path d="m1011.69329,767.23191c0,0 -0.33,-45.46 56.74,-46.13c57.08,-0.66 82.63,30.2 82.63,37.83c0,7.63 -11.61,8.3 -11.61,8.3l-127.76,0z" class="change-color-in-svg" fill=" rgb(51, 105, 180)" id="svg_324"/>
  <path d="m1029.67329,767.23191c0,0 -8.15,-20.91 -31.94,-18.9c-23.78,2.01 -31.16,14.21 -32.05,18.9l63.99,0z" fill="#3F4249" id="svg_325"/>
  <path d="m134.92329,434.15191c77.21,-10.07 69.38,-57.07 69.38,-57.07c0,0 24.62,-3.36 66.02,-17.9c41.04,-14.42 78.96,-26.12 65.45,-147.34c0,0 -11.71,-4.87 -11.84,-5.95l-141.41,-7.21l-161.75,155.21l7.68,55.99l1.69,12.43c21.52,8.44 58.02,17.94 104.78,11.84z" class="change-color-in-svg" fill=" rgb(51, 105, 180)" id="svg_326"/>
  <g opacity="0.15" id="svg_327">
   <path opacity="0.15" d="m134.92329,434.15191c77.21,-10.07 69.38,-57.07 69.38,-57.07c0,0 24.62,-3.36 66.02,-17.9c40.59,-14.26 77.96,-27.45 65.69,-145.01c-0.24,-2.35 -11.8,-5.85 -12.08,-8.28l-141.41,-7.21l-161.75,155.21l7.68,55.99l1.69,12.43c21.52,8.44 58.02,17.94 104.78,11.84z" fill="black" id="svg_328"/>
  </g>
  <path d="m1.52329,340.88191l-0.88,-2.96c0.01,-0.01 -1.93,0.64 0.88,2.96z" class="change-color-in-svg" fill=" rgb(51, 105, 180)" id="svg_329"/>
  <path d="m217.73329,403.93191c30.21,-16.78 26.86,-41.4 26.86,-41.4c0,0 90.64,-22.38 59.31,-95.11c-15.4,-35.75 -45.72,51.76 -83.92,72.73c-57.07,31.33 -110.78,39.16 -170.08,20.14c-11.01,-3.53 -19.62,-6.52 -26.36,-9.05l-2.76,2.64l6.67,48.6c77.15,29.23 161.16,17.63 190.28,1.45z" class="change-color-in-svg" fill=" rgb(51, 105, 180)" id="svg_330"/>
  <path d="m133.95329,394.73191c-32.42,0 -58.71,-26.28 -58.71,-58.71l0,-29.69l-10.91,9.21l-3.26,22.85c0,38.2 30.97,69.17 69.17,69.17l19.23,0l0,-12.83l-15.52,0z" fill="black" id="svg_331"/>
  <path d="m147.99329,437.25191c41.76,1.38 73.09,-26.28 73.09,-58.71l0,-63l14.55,0l0,65.37c0,38.2 -37.24,69.17 -83.18,69.17l-17.38,0l0,-12.82l12.92,-0.01z" fill="black" id="svg_332"/>
  <path d="m62.51329,495.90191c55.04,-7.78 75.15,-58.82 75.15,-98.63l0,-36.46l17.4,0l0,39.36c0,46.9 -28.52,103.02 -92.48,112.09c-5.17,0.73 -20.54,2.43 -20.54,2.43l-2.48,-16.59c0,0 17.24,-1.4 22.95,-2.2z" fill="black" id="svg_333"/>
  <path d="m259.18329,305.97191c58.19,-4.12 102.9,-28.57 102.9,-58.13c0,-32.44 -53.86,-58.75 -120.29,-58.75c-20.39,0 -39.6,2.48 -56.42,6.86l-164.6,157.94l0.6,4.36c25.19,11.1 56.82,17.71 91.18,17.71c73.48,0 134.52,-30.24 146.63,-69.99z" class="change-color-in-svg" fill=" rgb(51, 105, 180)" id="svg_334"/>
  <g opacity="0.7" id="svg_335">
   <path opacity="0.7" d="m259.18329,305.97191c58.19,-4.12 102.9,-28.57 102.9,-58.13c0,-32.44 -53.86,-58.75 -120.29,-58.75c-20.39,0 -39.6,2.48 -56.42,6.86l-164.6,157.94l0.6,4.36c25.19,11.1 56.82,17.71 91.18,17.71c73.48,0 134.52,-30.24 146.63,-69.99z" fill="white" id="svg_336"/>
  </g>
  <path d="m222.20329,260.15191c0,-5.76 -2.51,-11.28 -7.11,-16.41c31.18,-1.28 55.23,-9.48 55.23,-19.4c0,-10.81 -28.56,-19.58 -63.78,-19.58c-12.24,0 -23.67,1.06 -33.38,2.9l-103.79,99.59c9.86,1.03 20.2,1.57 30.86,1.57c67.36,0 121.97,-21.79 121.97,-48.67z" class="change-color-in-svg" fill=" rgb(51, 105, 180)" id="svg_337"/>
  <g opacity="0.8" id="svg_338">
   <path opacity="0.8" d="m222.20329,260.15191c0,-5.76 -2.51,-11.28 -7.11,-16.41c31.18,-1.28 55.23,-9.48 55.23,-19.4c0,-10.81 -28.56,-19.58 -63.78,-19.58c-12.24,0 -23.67,1.06 -33.38,2.9l-103.79,99.59c9.86,1.03 20.2,1.57 30.86,1.57c67.36,0 121.97,-21.79 121.97,-48.67z" fill="white" id="svg_339"/>
  </g>
  <line fill="white" stroke-width="null" x1="766.45466" y1="359.81409" x2="757.21097" y2="421.15861" id="svg_344" stroke-linejoin="null" stroke-linecap="null" opacity="0.7"/>
  <defs>
   <style>.cls-1{fill:#f4ceae;}.cls-2{fill:#ffb594;}.cls-3,.cls-4,.cls-8{fill:#cfd2e8;}.cls-10,.cls-22,.cls-24,.cls-3,.cls-6{opacity:0.3;}.cls-4{opacity:0.2;}.cls-5{fill:#516582;}.cls-6{fill:#233449;}.cls-22,.cls-7{fill:#fff;}.cls-9{fill:#1b3c47;}.cls-10{fill:#213144;}.cls-11{fill:#b0d7e9;}.cls-12{fill:#c0e5f2;}.cls-13{fill:#cc6f65;}.cls-13,.cls-21,.cls-23{opacity:0.5;}.cls-14{fill:#fcdfca;}.cls-15,.cls-23{fill:#fceade;}.cls-16{fill:#274b5b;}.cls-17{fill:#e1f4f9;}.cls-18{fill:#54b9d3;}.cls-19{fill:#e5f5fa;}.cls-20{fill:#6ac2d9;}.cls-25{fill:#f2bf46;}.cls-26{fill:#00b8ff;}</style>
  </defs>
  <path d="m1141.89344,470.88526l-155.1,0c-3.91,0 -7.07,-3.17 -7.07,-7.08l0,-128.46c0,-3.91 3.17,-7.07 7.07,-7.07l155.09,0c3.91,0 7.08,3.17 7.08,7.07l0,128.46c0,3.91 -3.17,7.08 -7.07,7.08z" fill="#F4F4F4" id="svg_483"/>
  <rect fill=" rgb(51, 105, 180)" stroke-width="null" x="756.53846" y="288.09903" width="167.39989" height="279.91521" id="svg_484" rx="25"/>
  <rect fill="#F4F4F4" stroke-width="null" x="765.91345" y="303.86086" width="148.05826" height="231.96885" id="svg_485" rx="14"/>
  <ellipse fill="white" stroke-width="null" cx="841.4585" cy="553.38622" id="svg_486" rx="10.35611" ry="10.35611" opacity="0.7"/>
  <path d="m883.7064,502.93317c-0.9493,-0.42718 -1.86695,-0.72779 -2.92699,-0.91765l0.31643,-4.33511c3.76553,0.72779 6.85074,2.76877 9.92012,5.07872c0.85436,0.66451 2.00934,-0.25314 1.6138,-1.28154c-2.04098,-4.80976 -9.22397,-10.4897 -10.85359,-14.72988l0.33225,-6.32862c0.36389,-0.41137 0.6645,-0.85437 0.74361,-1.47141c0.25315,-1.40812 -0.74361,-2.80042 -2.1992,-2.97445c-3.48074,-0.50629 -7.07223,-1.43977 -8.70186,-2.05681c0.3639,-2.30995 1.69291,-6.58177 2.43653,-9.0974c0.26896,-1.0284 -0.03165,-2.29412 -1.45559,-3.98703c-3.11685,-3.6706 -4.88886,-3.13267 -10.20491,-1.0284c-4.50914,1.80366 -9.55622,5.6483 -12.49903,9.47711c-0.33225,0.33226 -0.71197,0.7278 -1.07587,1.32902c-0.98093,1.56633 -0.74361,3.38581 0.44301,4.76229c1.23408,1.50305 3.63896,3.81299 5.56919,5.42679c2.07262,1.77202 4.3351,3.73389 6.26534,6.02802c-1.56634,2.45234 -6.18624,7.7051 -10.25238,11.89781c-1.26572,1.34484 -1.2499,3.4491 0.01582,4.66737c0.33226,0.33225 0.77526,0.63286 1.20244,0.72779c1.15498,0.41136 2.57892,0.18986 3.51239,-0.82272c0.14239,-0.12658 3.30671,-3.38582 6.42355,-6.94567c5.33187,-6.20205 7.51525,-9.60369 5.36351,-12.46739c-2.18337,-2.7846 -4.74646,-5.15783 -6.92984,-7.08806c1.94605,-1.80366 4.35093,-3.78136 6.29698,-5.37933c-0.28479,1.29736 -0.50629,2.43652 -0.50629,3.29088c-0.07911,1.86695 1.26573,3.13267 3.25924,4.01868c1.26573,0.56957 2.80042,0.96511 4.256,1.32901c1.45559,0.3639 2.94281,0.64868 4.08197,0.87019l-0.1424,2.87952c-3.40163,-1.32901 -5.88562,-1.09169 -8.2905,-0.83854c1.32902,1.93023 1.40812,4.33511 0.15822,6.92984c-0.96512,1.94605 -2.57891,4.28765 -5.83816,7.97407c-3.18013,3.71807 -6.45519,7.02477 -6.56595,7.07224c-1.53469,1.50305 -3.79717,2.12009 -5.82233,1.31319c-0.31643,-0.1424 -1.26573,-0.56958 -2.00934,-1.26573c-2.16755,-2.19919 -2.16755,-5.63247 -0.03164,-7.81585c3.49656,-3.57567 7.13552,-7.67346 9.00247,-10.17326c-1.62962,-1.67709 -3.33835,-3.19596 -4.92051,-4.57244c-1.78784,-1.55051 -4.33511,-3.92374 -5.74323,-5.69576c-1.23408,-1.50305 -1.74037,-3.35417 -1.4714,-5.03126c-1.34484,-0.60122 -2.89535,-1.18661 -4.66736,-1.6929c-5.52173,-1.69291 -11.23331,-1.28155 -14.58748,-0.5854c-1.47141,0.30061 -1.64545,2.40488 -0.1424,2.87952c8.17975,2.7846 12.94204,6.61342 15.50513,10.7112l-4.1136,1.9777c-1.32901,-1.93023 -3.27507,-3.54403 -5.58501,-4.57243c-6.83492,-3.03774 -14.79317,0.0791 -17.79926,6.83491c-3.03774,6.83492 0.0791,14.79316 6.83491,17.79926c6.83492,3.03774 14.79316,-0.07911 17.79926,-6.83492c1.40812,-3.18013 1.50305,-6.56594 0.50629,-9.68279l4.00286,-1.93023c2.2783,6.62923 -0.06329,13.19518 -1.37648,16.13799c-0.42718,0.94929 -0.03164,1.99352 0.93347,2.40488l14.41345,6.32862c0.94929,0.42719 2.02516,-0.04746 2.40487,-0.93347c1.43977,-3.4491 5.74323,-10.96434 12.62561,-12.56232c1.3923,-0.33225 2.67385,-0.42718 3.93957,-0.52211l-0.26897,4.44586c-4.68318,0.49047 -8.92336,3.35417 -10.96434,7.95824c-3.03774,6.83492 0.07911,14.79317 6.83492,17.79926c6.83491,3.03774 14.79316,-0.0791 17.79925,-6.83491c3.0061,-6.94567 -0.11075,-14.88809 -6.86655,-17.89419zm-59.6473,-2.8637c-4.12943,-1.8353 -5.90144,-6.62924 -4.09778,-10.67956c1.8353,-4.12943 6.62923,-5.90144 10.67955,-4.09778c1.10751,0.49047 2.04098,1.18661 2.7846,2.08844l-6.73999,3.18014c-0.99676,0.50629 -1.40812,1.66126 -0.88601,2.6422c0.17404,0.45882 0.61705,0.74361 1.01258,0.93347c0.55376,0.25315 1.13916,0.2215 1.62963,-0.03164l6.92984,-3.38582c0.37972,1.69291 0.26897,3.4491 -0.47465,5.12619c-1.88276,4.22436 -6.69252,6.07548 -10.83777,4.22436zm50.85051,22.64065c-4.12943,-1.8353 -5.90145,-6.62923 -4.09779,-10.67955c1.09169,-2.46817 3.24342,-4.08196 5.74323,-4.57243l-0.47465,8.35378c-0.07911,0.82272 0.42718,1.6138 1.13916,1.93023c0.23732,0.11075 0.39553,0.17404 0.6645,0.20568c1.09169,0.11075 2.07263,-0.79107 2.0568,-1.85112l0.52212,-8.43289c0.34807,0.06328 0.6645,0.20568 1.07586,0.37971c4.12943,1.83531 5.90145,6.62924 4.09779,10.67956c-1.85113,3.93957 -6.6767,5.79069 -10.72702,3.98703z" class="change-color-in-svg" fill=" rgb(51, 105, 180)" id="svg_106" stroke="null" transform="rotate(-23.151762008666992 853.3163452148434,493.48797607421875) "/>
  <path d="m858.96329,454.20455c3.07337,0 5.56393,-2.49055 5.56393,-5.56266c0,-3.07211 -2.49056,-5.56266 -5.56393,-5.56266c-3.07211,0 -5.56266,2.49055 -5.56266,5.56266c0,3.07211 2.49055,5.56266 5.56266,5.56266z" class="change-color-in-svg" fill=" rgb(51, 105, 180)" id="svg_107" stroke="null"/>
  <rect fill=" rgb(51, 105, 180)" stroke-width="null" x="784.47135" y="402.56033" width="33.19327" height="39.9674" id="svg_341" stroke="null"/>
  <text fill="#F4F4F4" stroke-width="0" x="1004.35278" y="427.03075" id="svg_340" font-size="24" font-family="Helvetica, Arial, sans-serif" text-anchor="start" xml:space="preserve" font-weight="bold">P</text>
  <rect fill=" rgb(51, 105, 180)" stroke-width="null" x="797.85741" y="440.56695" width="4.62185" height="73.94955" id="svg_345" stroke="null"/>
  <ellipse fill=" rgb(51, 105, 180)" stroke-width="null" cx="800.36562" cy="512.92779" id="svg_346" rx="6.53993" ry="2.80283" stroke="null"/>
  <path d="m788.52387,332.58344c4.501,0 8.15,-3.649 8.15,-8.15c0,-4.501 -3.649,-8.15 -8.15,-8.15c-4.501,0 -8.15,3.649 -8.15,8.15c0,4.501 3.649,8.15 8.15,8.15z" class="change-color-in-svg" fill=" rgb(51, 105, 180)" id="svg_48"/>
  <text fill="#F4F4F4" stroke-width="0" stroke-opacity="null" fill-opacity="null" x="809.61176" y="456.1803" id="svg_495" font-size="24" font-family="Helvetica, Arial, sans-serif" text-anchor="start" xml:space="preserve" font-weight="bold" transform="matrix(1.1809825897216797,0,0,1.1809825897216797,-163.92498064041138,-105.34600648283958) " stroke="null">P</text>
 </g>
</svg>